<svg xmlns="http://www.w3.org/2000/svg" xmlns:xlink="http://www.w3.org/1999/xlink" width="24px" height="24px" viewBox="0 0 24 24" version="1.1">
<g id="surface1">
<path style=" stroke:none;fill-rule:nonzero;fill:rgb(0%,0%,0%);fill-opacity:1;" d="M 0.632812 0.550781 L 0.632812 23.449219 L 2.28125 23.449219 L 2.28125 24 L 0 24 L 0 0 L 2.28125 0 L 2.28125 0.550781 Z M 7.675781 7.808594 L 7.675781 8.96875 L 7.707031 8.96875 C 8.015625 8.523438 8.390625 8.183594 8.824219 7.941406 C 9.257812 7.699219 9.761719 7.578125 10.324219 7.578125 C 10.863281 7.578125 11.359375 7.683594 11.804688 7.890625 C 12.253906 8.101562 12.589844 8.472656 12.824219 9 C 13.078125 8.625 13.425781 8.292969 13.859375 8.007812 C 14.292969 7.722656 14.808594 7.578125 15.40625 7.578125 C 15.859375 7.578125 16.277344 7.632812 16.664062 7.746094 C 17.054688 7.855469 17.382812 8.03125 17.660156 8.273438 C 17.933594 8.519531 18.148438 8.835938 18.304688 9.226562 C 18.457031 9.617188 18.535156 10.089844 18.535156 10.644531 L 18.535156 16.371094 L 16.1875 16.371094 L 16.1875 11.519531 C 16.1875 11.234375 16.175781 10.960938 16.152344 10.707031 C 16.136719 10.476562 16.078125 10.253906 15.972656 10.046875 C 15.875 9.859375 15.722656 9.703125 15.535156 9.601562 C 15.34375 9.488281 15.078125 9.433594 14.75 9.433594 C 14.417969 9.433594 14.152344 9.496094 13.949219 9.621094 C 13.75 9.746094 13.582031 9.917969 13.46875 10.121094 C 13.347656 10.335938 13.269531 10.574219 13.238281 10.816406 C 13.199219 11.078125 13.179688 11.339844 13.175781 11.601562 L 13.175781 16.371094 L 10.828125 16.371094 L 10.828125 11.570312 C 10.828125 11.316406 10.824219 11.066406 10.808594 10.820312 C 10.800781 10.582031 10.753906 10.351562 10.664062 10.132812 C 10.585938 9.921875 10.4375 9.746094 10.25 9.628906 C 10.058594 9.503906 9.773438 9.4375 9.398438 9.4375 C 9.285156 9.4375 9.136719 9.460938 8.957031 9.511719 C 8.777344 9.5625 8.597656 9.65625 8.429688 9.792969 C 8.257812 9.933594 8.109375 10.132812 7.988281 10.390625 C 7.867188 10.648438 7.808594 10.988281 7.808594 11.410156 L 7.808594 16.375 L 5.460938 16.375 L 5.460938 7.808594 Z M 23.367188 23.449219 L 23.367188 0.550781 L 21.71875 0.550781 L 21.71875 0 L 24 0 L 24 24 L 21.71875 24 L 21.71875 23.449219 Z M 23.367188 23.449219 "/>
</g>
</svg>
