<svg xmlns="http://www.w3.org/2000/svg" xmlns:xlink="http://www.w3.org/1999/xlink" width="24px" height="24px" viewBox="0 0 24 24" version="1.1">
<g id="surface1">
<path style=" stroke:none;fill-rule:nonzero;fill:rgb(38.823529%,39.215686%,100%);fill-opacity:1;" d="M 23.269531 5.3125 C 22.917969 2.734375 20.652344 0.703125 17.964844 0.308594 C 17.511719 0.242188 15.792969 0 11.8125 0 L 11.78125 0 C 7.804688 0 6.949219 0.242188 6.496094 0.308594 C 3.882812 0.691406 1.496094 2.519531 0.917969 5.128906 C 0.640625 6.410156 0.609375 7.835938 0.660156 9.144531 C 0.734375 11.015625 0.75 12.886719 0.921875 14.753906 C 1.039062 15.992188 1.246094 17.222656 1.539062 18.433594 C 2.089844 20.671875 4.316406 22.53125 6.5 23.289062 C 8.835938 24.082031 11.351562 24.214844 13.757812 23.671875 C 14.023438 23.609375 14.285156 23.539062 14.542969 23.457031 C 15.128906 23.273438 15.8125 23.066406 16.316406 22.703125 C 16.332031 22.695312 16.339844 22.679688 16.339844 22.660156 L 16.339844 20.851562 C 16.339844 20.835938 16.332031 20.820312 16.320312 20.8125 C 16.308594 20.800781 16.289062 20.796875 16.273438 20.800781 C 14.730469 21.167969 13.152344 21.351562 11.566406 21.347656 C 8.835938 21.347656 8.101562 20.0625 7.890625 19.527344 C 7.722656 19.066406 7.613281 18.585938 7.570312 18.097656 C 7.570312 18.078125 7.578125 18.0625 7.589844 18.050781 C 7.605469 18.042969 7.621094 18.039062 7.636719 18.042969 C 9.15625 18.40625 10.710938 18.589844 12.269531 18.589844 C 12.644531 18.589844 13.019531 18.589844 13.394531 18.578125 C 14.964844 18.535156 16.617188 18.453125 18.164062 18.15625 C 18.199219 18.148438 18.238281 18.140625 18.273438 18.132812 C 20.707031 17.667969 23.027344 16.210938 23.261719 12.527344 C 23.269531 12.382812 23.292969 11.007812 23.292969 10.859375 C 23.292969 10.347656 23.460938 7.226562 23.269531 5.3125 Z M 19.519531 14.507812 L 16.960938 14.507812 L 16.960938 8.289062 C 16.960938 6.980469 16.410156 6.3125 15.289062 6.3125 C 14.058594 6.3125 13.441406 7.105469 13.441406 8.664062 L 13.441406 12.066406 L 10.898438 12.066406 L 10.898438 8.664062 C 10.898438 7.101562 10.28125 6.3125 9.050781 6.3125 C 7.9375 6.3125 7.382812 6.980469 7.378906 8.289062 L 7.378906 14.507812 L 4.820312 14.507812 L 4.820312 8.101562 C 4.820312 6.792969 5.160156 5.753906 5.832031 4.980469 C 6.527344 4.210938 7.441406 3.816406 8.574219 3.816406 C 9.882812 3.816406 10.875 4.316406 11.535156 5.316406 L 12.171875 6.375 L 12.8125 5.316406 C 13.472656 4.316406 14.460938 3.816406 15.769531 3.816406 C 16.902344 3.816406 17.8125 4.214844 18.511719 4.980469 C 19.1875 5.753906 19.523438 6.792969 19.523438 8.101562 Z M 19.519531 14.507812 "/>
</g>
</svg>
