<svg xmlns="http://www.w3.org/2000/svg" xmlns:xlink="http://www.w3.org/1999/xlink" width="24px" height="24px" viewBox="0 0 24 24" version="1.1">
<defs>
<linearGradient id="linear0" gradientUnits="userSpaceOnUse" x1="305.20093" y1="598.59198" x2="305.785" y2="8.243759" gradientTransform="matrix(0.0398671,0,0,0.0398671,0.000000603721,-0.00000840189)">
<stop offset="0" style="stop-color:rgb(43.921569%,93.72549%,100%);stop-opacity:1;"/>
<stop offset="1" style="stop-color:rgb(34.117647%,43.921569%,100%);stop-opacity:1;"/>
</linearGradient>
</defs>
<g id="surface1">
<path style=" stroke:none;fill-rule:nonzero;fill:url(#linear0);" d="M 5.527344 0.0390625 L 18.472656 0.0390625 C 21.511719 0.0390625 23.960938 2.488281 23.960938 5.527344 L 23.960938 18.472656 C 23.960938 21.511719 21.511719 23.960938 18.472656 23.960938 L 5.527344 23.960938 C 2.488281 23.960938 0.0390625 21.511719 0.0390625 18.472656 L 0.0390625 5.527344 C 0.0390625 2.488281 2.488281 0.0390625 5.527344 0.0390625 Z M 5.527344 0.0390625 "/>
<path style=" stroke:none;fill-rule:nonzero;fill:rgb(100%,100%,100%);fill-opacity:1;" d="M 5.28125 6.84375 C 5.15625 6.84375 5.035156 6.863281 4.921875 6.910156 L 7.175781 9.226562 L 9.449219 11.585938 L 9.492188 11.632812 L 9.625 11.765625 L 9.757812 11.910156 L 11.710938 13.910156 C 11.742188 13.929688 11.835938 14.019531 11.910156 14.054688 C 12.003906 14.101562 12.105469 14.144531 12.214844 14.148438 C 12.328125 14.152344 12.445312 14.121094 12.546875 14.070312 C 12.625 14.03125 12.65625 13.980469 12.746094 13.910156 L 15.007812 11.578125 L 17.289062 9.226562 L 19.492188 6.957031 C 19.351562 6.882812 19.195312 6.84375 19.027344 6.84375 Z M 4.589844 7.125 C 4.351562 7.351562 4.199219 7.695312 4.199219 8.078125 L 4.199219 15.6875 C 4.199219 16 4.300781 16.285156 4.464844 16.5 L 4.78125 16.203125 L 7.132812 13.917969 L 9.21875 11.898438 L 9.175781 11.851562 L 6.890625 9.5 L 4.609375 7.140625 Z M 19.789062 7.199219 L 17.566406 9.5 L 15.289062 11.851562 L 15.246094 11.890625 L 17.414062 13.992188 L 19.765625 16.277344 L 19.90625 16.410156 C 20.035156 16.207031 20.105469 15.957031 20.105469 15.6875 L 20.105469 8.078125 C 20.105469 7.734375 19.988281 7.421875 19.789062 7.199219 Z M 9.484375 12.175781 L 7.40625 14.191406 L 5.046875 16.476562 L 4.75 16.765625 C 4.90625 16.867188 5.085938 16.933594 5.28125 16.933594 L 19.027344 16.933594 C 19.261719 16.933594 19.472656 16.84375 19.648438 16.699219 L 19.5 16.550781 L 17.140625 14.265625 L 14.972656 12.175781 L 13.023438 14.183594 C 12.914062 14.253906 12.84375 14.332031 12.742188 14.378906 C 12.578125 14.457031 12.394531 14.523438 12.210938 14.519531 C 12.027344 14.515625 11.847656 14.445312 11.683594 14.363281 C 11.601562 14.324219 11.558594 14.28125 11.460938 14.199219 Z M 9.484375 12.175781 "/>
</g>
</svg>
